<svg width="89" height="60" viewBox="0 0 89 60" fill="none" xmlns="http://www.w3.org/2000/svg">
<path d="M5.92313 51.2L4.31544 52.3897L4.32214 52.3987L4.32894 52.4077L5.92313 51.2ZM5.92313 8.88L4.32312 7.68L4.32119 7.68259L5.92313 8.88ZM38.8831 8.88L37.2754 10.0697L37.2812 10.0774L38.8831 8.88ZM38.8831 51.2L40.4851 52.3974L40.4908 52.3897L38.8831 51.2ZM13.9231 43.68L12.2158 44.7217L12.2198 44.7282L12.2238 44.7347L13.9231 43.68ZM30.8831 43.6L29.1887 42.5374L29.1822 42.5478L29.1758 42.5583L30.8831 43.6ZM30.8831 16.32L29.1758 17.3617L29.1822 17.3722L29.1887 17.3826L30.8831 16.32ZM22.4031 57.12C16.0026 57.12 11.1157 54.7422 7.51731 49.9923L4.32894 52.4077C8.73051 58.2178 14.8303 61.12 22.4031 61.12V57.12ZM7.53081 50.0103C3.91071 45.1183 2.00313 38.5105 2.00313 30H-1.99688C-1.99688 39.0895 0.0422063 46.615 4.31544 52.3897L7.53081 50.0103ZM2.00313 30C2.00313 21.4882 3.91122 14.9122 7.52506 10.0774L4.32119 7.68259C0.0417011 13.4078 -1.99688 20.9118 -1.99688 30H2.00313ZM7.52313 10.08C11.1247 5.2779 16.0106 2.88 22.4031 2.88V-1.12C14.8223 -1.12 8.72155 1.81543 4.32313 7.68L7.52313 10.08ZM22.4031 2.88C28.8543 2.88 33.7321 5.28133 37.2754 10.0697L40.4908 7.69031C36.1409 1.81199 30.0319 -1.12 22.4031 -1.12V2.88ZM37.2812 10.0774C40.895 14.9122 42.8031 21.4882 42.8031 30H46.8031C46.8031 20.9118 44.7646 13.4078 40.4851 7.68259L37.2812 10.0774ZM42.8031 30C42.8031 38.5105 40.8955 45.1183 37.2754 50.0103L40.4908 52.3897C44.764 46.615 46.8031 39.0895 46.8031 30H42.8031ZM37.2812 50.0026C33.741 54.7388 28.8624 57.12 22.4031 57.12V61.12C30.0239 61.12 36.1319 58.2212 40.4851 52.3974L37.2812 50.0026ZM12.2238 44.7347C14.5198 48.4338 17.9994 50.32 22.4031 50.32V46.32C19.3401 46.32 17.1664 45.1128 15.6224 42.6253L12.2238 44.7347ZM22.4031 50.32C26.8227 50.32 30.3016 48.3929 32.5904 44.6417L29.1758 42.5583C27.6247 45.1005 25.4502 46.32 22.4031 46.32V50.32ZM32.5775 44.6626C34.8363 41.0607 35.8431 36.0927 35.8431 30H31.8431C31.8431 35.7473 30.8766 39.846 29.1887 42.5374L32.5775 44.6626ZM35.8431 30C35.8431 23.8581 34.8377 18.8615 32.5775 15.2574L29.1887 17.3826C30.8752 20.0718 31.8431 24.1952 31.8431 30H35.8431ZM32.5904 15.2783C30.3016 11.5271 26.8227 9.6 22.4031 9.6V13.6C25.4502 13.6 27.6247 14.8195 29.1758 17.3617L32.5904 15.2783ZM22.4031 9.6C17.9835 9.6 14.5047 11.5271 12.2158 15.2783L15.6304 17.3617C17.1816 14.8195 19.3561 13.6 22.4031 13.6V9.6ZM12.2158 15.2783C10.02 18.8771 9.04313 23.8648 9.04313 30H13.0431C13.0431 24.1886 13.9863 20.0562 15.6304 17.3617L12.2158 15.2783ZM9.04313 30C9.04313 36.1352 10.02 41.1229 12.2158 44.7217L15.6304 42.6383C13.9863 39.9438 13.0431 35.8114 13.0431 30H9.04313ZM82.9688 27.28L81.6441 28.7784L81.6502 28.7838L81.6564 28.7892L82.9688 27.28ZM82.6488 54.24L81.3663 52.7052L81.3559 52.714L82.6488 54.24ZM56.4888 56.08L55.4794 57.8066L56.4888 56.08ZM48.9688 47.12L47.9592 45.3935L46.4825 46.257L47.1066 47.8497L48.9688 47.12ZM58.4088 41.6L60.3193 41.0086L59.5743 38.6016L57.3992 39.8735L58.4088 41.6ZM75.0488 46.32L76.3546 47.8348L76.3586 47.8314L75.0488 46.32ZM75.1288 35.2L76.4638 33.7109V33.7109L75.1288 35.2ZM51.8488 33.12L49.8539 32.9764L49.6996 35.12H51.8488V33.12ZM54.0887 2V-3.8147e-06H52.2275L52.0939 1.85641L54.0887 2ZM85.8488 2H87.8488V-3.8147e-06H85.8488V2ZM85.8488 12.32V14.32H87.8488V12.32H85.8488ZM64.3288 12.32V10.32H62.4665L62.3338 12.1775L64.3288 12.32ZM63.6087 22.4L61.6138 22.2575L61.4608 24.4H63.6087V22.4ZM69.3688 24.4C74.3184 24.4 78.3661 25.8805 81.6441 28.7784L84.2934 25.7816C80.2114 22.1729 75.1925 20.4 69.3688 20.4V24.4ZM81.6564 28.7892C84.8194 31.5397 86.4888 35.4235 86.4888 40.72H90.4888C90.4888 34.4965 88.4781 29.4203 84.2811 25.7708L81.6564 28.7892ZM86.4888 40.72C86.4888 45.9773 84.7401 49.8861 81.3663 52.7053L83.9312 55.7747C88.344 52.0873 90.4888 46.9827 90.4888 40.72H86.4888ZM81.3559 52.714C77.9184 55.6264 73.6723 57.12 68.4888 57.12V61.12C74.5052 61.12 79.6991 59.3603 83.9416 55.766L81.3559 52.714ZM68.4888 57.12C64.2635 57.12 60.6206 56.1788 57.4981 54.3534L55.4794 57.8066C59.2902 60.0345 63.6473 61.12 68.4888 61.12V57.12ZM57.4981 54.3534C54.4423 52.5669 52.2232 49.9432 50.8309 46.3903L47.1066 47.8497C48.8076 52.1901 51.6019 55.5398 55.4794 57.8066L57.4981 54.3534ZM49.9783 48.8465L59.4183 43.3265L57.3992 39.8735L47.9592 45.3935L49.9783 48.8465ZM56.4982 42.1914C57.3044 44.796 58.7369 46.8891 60.8594 48.3041C62.9581 49.7033 65.5518 50.32 68.4888 50.32V46.32C66.0924 46.32 64.3394 45.8167 63.0781 44.9759C61.8406 44.1509 60.8998 42.884 60.3193 41.0086L56.4982 42.1914ZM68.4888 50.32C71.6111 50.32 74.3265 49.5832 76.3546 47.8348L73.7429 44.8052C72.6777 45.7234 71.0198 46.32 68.4888 46.32V50.32ZM76.3586 47.8314C78.4476 46.021 79.4488 43.5762 79.4488 40.72H75.4488C75.4488 42.5572 74.8499 43.8457 73.7389 44.8086L76.3586 47.8314ZM79.4488 40.72C79.4488 37.9244 78.4805 35.5189 76.4638 33.7109L73.7937 36.6891C74.8704 37.6545 75.4488 38.9289 75.4488 40.72H79.4488ZM76.4638 33.7109C74.4556 31.9104 71.8242 31.12 68.8087 31.12V35.12C71.1267 35.12 72.7086 35.7163 73.7937 36.6891L76.4638 33.7109ZM68.8087 31.12H51.8488V35.12H68.8087V31.12ZM53.8436 33.2636L56.0836 2.14358L52.0939 1.85641L49.8539 32.9764L53.8436 33.2636ZM54.0887 4H85.8488V-3.8147e-06H54.0887V4ZM83.8488 2V12.32H87.8488V2H83.8488ZM85.8488 10.32H64.3288V14.32H85.8488V10.32ZM62.3338 12.1775L61.6138 22.2575L65.6037 22.5425L66.3237 12.4625L62.3338 12.1775ZM63.6087 24.4H69.3688V20.4H63.6087V24.4Z" fill="#D9D9D9"/>
</svg>
