<svg width="86" height="60" viewBox="0 0 86 60" fill="none" xmlns="http://www.w3.org/2000/svg">
<path d="M5.97781 51.2L4.37013 52.3897L4.37683 52.3987L4.38363 52.4077L5.97781 51.2ZM5.97781 8.88L4.37781 7.68L4.37587 7.68259L5.97781 8.88ZM38.9378 8.88L37.3301 10.0697L37.3359 10.0774L38.9378 8.88ZM38.9378 51.2L40.5398 52.3974L40.5455 52.3897L38.9378 51.2ZM13.9778 43.68L12.2705 44.7217L12.2745 44.7282L12.2785 44.7347L13.9778 43.68ZM30.9378 43.6L29.2434 42.5374L29.2369 42.5478L29.2305 42.5583L30.9378 43.6ZM30.9378 16.32L29.2305 17.3617L29.2369 17.3722L29.2434 17.3826L30.9378 16.32ZM22.4578 57.12C16.0573 57.12 11.1704 54.7422 7.572 49.9923L4.38363 52.4077C8.7852 58.2178 14.885 61.12 22.4578 61.12V57.12ZM7.5855 50.0103C3.9654 45.1183 2.05781 38.5105 2.05781 30H-1.94219C-1.94219 39.0895 0.0968938 46.615 4.37013 52.3897L7.5855 50.0103ZM2.05781 30C2.05781 21.4882 3.9659 14.9122 7.57975 10.0774L4.37587 7.68259C0.0963886 13.4078 -1.94219 20.9118 -1.94219 30H2.05781ZM7.57781 10.08C11.1794 5.2779 16.0653 2.88 22.4578 2.88V-1.12C14.877 -1.12 8.77624 1.81543 4.37781 7.68L7.57781 10.08ZM22.4578 2.88C28.909 2.88 33.7868 5.28133 37.3301 10.0697L40.5455 7.69031C36.1955 1.81199 30.0866 -1.12 22.4578 -1.12V2.88ZM37.3359 10.0774C40.9497 14.9122 42.8578 21.4882 42.8578 30H46.8578C46.8578 20.9118 44.8192 13.4078 40.5398 7.68259L37.3359 10.0774ZM42.8578 30C42.8578 38.5105 40.9502 45.1183 37.3301 50.0103L40.5455 52.3897C44.8187 46.615 46.8578 39.0895 46.8578 30H42.8578ZM37.3359 50.0026C33.7957 54.7388 28.9171 57.12 22.4578 57.12V61.12C30.0786 61.12 36.1866 58.2212 40.5398 52.3974L37.3359 50.0026ZM12.2785 44.7347C14.5745 48.4338 18.0541 50.32 22.4578 50.32V46.32C19.3948 46.32 17.2211 45.1128 15.6771 42.6253L12.2785 44.7347ZM22.4578 50.32C26.8774 50.32 30.3563 48.3929 32.6451 44.6417L29.2305 42.5583C27.6794 45.1005 25.5049 46.32 22.4578 46.32V50.32ZM32.6322 44.6626C34.891 41.0607 35.8978 36.0927 35.8978 30H31.8978C31.8978 35.7473 30.9313 39.846 29.2434 42.5374L32.6322 44.6626ZM35.8978 30C35.8978 23.8581 34.8924 18.8615 32.6322 15.2574L29.2434 17.3826C30.9299 20.0718 31.8978 24.1952 31.8978 30H35.8978ZM32.6451 15.2783C30.3563 11.5271 26.8774 9.6 22.4578 9.6V13.6C25.5049 13.6 27.6794 14.8195 29.2305 17.3617L32.6451 15.2783ZM22.4578 9.6C18.0382 9.6 14.5594 11.5271 12.2705 15.2783L15.6851 17.3617C17.2363 14.8195 19.4108 13.6 22.4578 13.6V9.6ZM12.2705 15.2783C10.0746 18.8771 9.09781 23.8648 9.09781 30H13.0978C13.0978 24.1886 14.041 20.0562 15.6851 17.3617L12.2705 15.2783ZM9.09781 30C9.09781 36.1352 10.0746 41.1229 12.2705 44.7217L15.6851 42.6383C14.041 39.9438 13.0978 35.8114 13.0978 30H9.09781ZM48.4022 58H46.4022V60H48.4022V58ZM48.4022 49.76L46.9677 48.3663L46.4022 48.9484V49.76H48.4022ZM67.5222 30.08L68.9567 31.4737L68.9636 31.4665L68.9705 31.4593L67.5222 30.08ZM71.8422 13.6L70.428 15.0142L70.4418 15.0281L70.456 15.0417L71.8422 13.6ZM57.2822 18.16L56.2707 19.8854L58.1708 20.9992L59.0968 19.0009L57.2822 18.16ZM48.0022 12.72L46.1841 11.8867L45.4305 13.5308L46.9907 14.4454L48.0022 12.72ZM55.6022 3.91999L54.5571 2.21479V2.21479L55.6022 3.91999ZM79.5222 5.68L78.1989 7.17967L78.2052 7.18518L78.2115 7.19064L79.5222 5.68ZM64.8022 47.36L63.388 45.9458L59.9738 49.36H64.8022V47.36ZM85.8422 47.36H87.8422V45.36H85.8422V47.36ZM85.8422 58V60H87.8422V58H85.8422ZM50.4022 58V49.76H46.4022V58H50.4022ZM49.8367 51.1537L68.9567 31.4737L66.0877 28.6863L46.9677 48.3663L49.8367 51.1537ZM68.9705 31.4593C71.171 29.1488 72.8854 26.9655 74.0587 24.9123C75.2267 22.8683 75.9222 20.8414 75.9222 18.88H71.9222C71.9222 19.9053 71.551 21.2384 70.5857 22.9277C69.6256 24.6078 68.14 26.5312 66.0739 28.7007L68.9705 31.4593ZM75.9222 18.88C75.9222 16.2307 75.0623 13.9217 73.2284 12.1583L70.456 15.0417C71.3954 15.945 71.9222 17.1559 71.9222 18.88H75.9222ZM73.2564 12.1858C71.4975 10.4269 69.23 9.6 66.6422 9.6V13.6C68.321 13.6 69.5202 14.1064 70.428 15.0142L73.2564 12.1858ZM66.6422 9.6C64.1702 9.6 61.9261 10.2483 59.9943 11.6022C58.0788 12.9447 56.5904 14.8961 55.4676 17.3191L59.0968 19.0009C60.0007 17.0505 61.0856 15.7219 62.2901 14.8778C63.4783 14.045 64.9008 13.6 66.6422 13.6V9.6ZM58.2936 16.4346L49.0136 10.9946L46.9907 14.4454L56.2707 19.8854L58.2936 16.4346ZM49.8203 13.5533C51.4303 10.0406 53.7094 7.42588 56.6473 5.6252L54.5571 2.21479C50.8817 4.46745 48.0941 7.71941 46.1841 11.8867L49.8203 13.5533ZM56.6473 5.6252C59.6337 3.79485 62.8976 2.88 66.4822 2.88V-1.12C62.1735 -1.12 58.184 -0.00819588 54.5571 2.21479L56.6473 5.6252ZM66.4822 2.88C71.0869 2.88 74.9562 4.31846 78.1989 7.17967L80.8454 4.18032C76.8348 0.641535 72.0108 -1.12 66.4822 -1.12V2.88ZM78.2115 7.19064C81.344 9.90856 82.9622 13.594 82.9622 18.48H86.9622C86.9622 12.5927 84.9537 7.74477 80.8329 4.16935L78.2115 7.19064ZM82.9622 18.48C82.9622 23.5508 80.289 29.0448 74.348 34.9858L77.1764 37.8142C83.502 31.4886 86.9622 25.0359 86.9622 18.48H82.9622ZM74.348 34.9858L63.388 45.9458L66.2164 48.7742L77.1764 37.8142L74.348 34.9858ZM64.8022 49.36H85.8422V45.36H64.8022V49.36ZM83.8422 47.36V58H87.8422V47.36H83.8422ZM85.8422 56H48.4022V60H85.8422V56Z" fill="#D9D9D9"/>
</svg>
