<svg width="20" height="20" viewBox="0 0 20 20" fill="none" xmlns="http://www.w3.org/2000/svg">
<g clip-path="url(#clip0_22_224)">
<path d="M9.49876 0.00291023C7.89376 0.0222852 4.44313 0.286035 2.51313 2.05666C1.07751 3.47916 0.576256 5.58229 0.517506 8.18291C0.468756 10.7742 0.410006 15.6404 5.10063 16.9654V18.9835C5.10063 18.9835 5.07126 19.791 5.60501 19.9567C6.26251 20.1648 6.63688 19.5435 7.26188 18.876L8.42751 17.5579C11.6369 17.8248 14.095 17.2098 14.3781 17.1185C15.0294 16.9104 18.6975 16.4417 19.2969 11.5748C19.9119 6.54854 18.9975 3.38166 17.3469 1.94916H17.3369C16.8388 1.49041 14.8369 0.0316602 10.3644 0.0154102C10.3644 0.0154102 10.0325 -0.00708977 9.49876 0.00228523V0.00291023ZM9.55376 1.41604C10.0094 1.41291 10.2863 1.43229 10.2863 1.43229C14.0719 1.44229 15.8788 2.58166 16.305 2.96541C17.695 4.15666 18.4113 7.01166 17.8869 11.2079C17.3888 15.2767 14.4138 15.5342 13.8631 15.7098C13.6288 15.7848 11.4638 16.3185 8.73626 16.1429C8.73626 16.1429 6.70501 18.5942 6.07001 19.2254C5.96938 19.336 5.85188 19.3685 5.77688 19.3523C5.66938 19.326 5.63688 19.1929 5.64313 19.0104L5.66251 15.661C1.68438 14.561 1.91876 10.4104 1.96126 8.24228C2.01001 6.07416 2.41688 4.30041 3.62813 3.09916C5.25876 1.62479 8.18876 1.42604 9.55251 1.41604H9.55376ZM9.85376 3.58354C9.82101 3.58321 9.78853 3.58936 9.75818 3.60164C9.72783 3.61392 9.70021 3.63209 9.67691 3.6551C9.65361 3.67811 9.6351 3.7055 9.62243 3.73569C9.60977 3.76589 9.60321 3.79829 9.60313 3.83104C9.60313 3.97104 9.71688 4.08166 9.85376 4.08166C10.4734 4.06988 11.0893 4.18089 11.6659 4.4083C12.2425 4.63571 12.7683 4.97502 13.2131 5.40666C14.1213 6.28854 14.5638 7.47354 14.5806 9.02291C14.5806 9.15979 14.6913 9.27354 14.8313 9.27354V9.26354C14.8972 9.2637 14.9606 9.23778 15.0076 9.19142C15.0545 9.14506 15.0812 9.08201 15.0819 9.01604C15.1122 8.28675 14.994 7.55892 14.7343 6.87676C14.4746 6.19461 14.0789 5.57239 13.5713 5.04791C12.5819 4.08104 11.3281 3.58291 9.85376 3.58291V3.58354ZM6.55938 4.15666C6.38247 4.13081 6.20205 4.16632 6.04813 4.25729H6.03501C5.67767 4.46675 5.35576 4.73149 5.08126 5.04166C4.85313 5.30541 4.72938 5.57229 4.69688 5.82916C4.67751 5.98229 4.69063 6.13541 4.73626 6.28166L4.75251 6.29166C5.00938 7.04666 5.34501 7.77291 5.75501 8.45666C6.28314 9.41726 6.9331 10.3056 7.68876 11.0998L7.71126 11.1323L7.74688 11.1585L7.76938 11.1848L7.79563 11.2073C8.59265 11.9652 9.48319 12.6181 10.4456 13.1504C11.5456 13.7492 12.2131 14.0323 12.6138 14.1498V14.156C12.7313 14.1917 12.8381 14.2079 12.9456 14.2079C13.2871 14.1829 13.6103 14.0443 13.8638 13.8142C14.1725 13.5396 14.4343 13.2164 14.6388 12.8573V12.851C14.8306 12.4898 14.7656 12.1479 14.4888 11.9167C13.9343 11.432 13.3347 11.0015 12.6981 10.631C12.2719 10.3998 11.8388 10.5398 11.6631 10.7742L11.2888 11.246C11.0969 11.4804 10.7481 11.4479 10.7481 11.4479L10.7381 11.4542C8.13751 10.7898 7.44376 8.15666 7.44376 8.15666C7.44376 8.15666 7.41126 7.79854 7.65188 7.61604L8.12063 7.23854C8.34501 7.05604 8.50126 6.62354 8.26063 6.19666C7.89276 5.55926 7.4632 4.9595 6.97813 4.40604C6.87209 4.27555 6.72332 4.18678 6.55813 4.15541L6.55938 4.15666ZM10.2863 4.89916C9.95438 4.89916 9.95438 5.40041 10.2894 5.40041C10.7021 5.4071 11.1094 5.49506 11.488 5.65924C11.8667 5.82343 12.2093 6.06063 12.4963 6.35729C12.758 6.64604 12.9592 6.9844 13.0878 7.35231C13.2164 7.72022 13.2699 8.11021 13.245 8.49916C13.2461 8.56499 13.273 8.62775 13.3199 8.674C13.3667 8.72026 13.4298 8.74634 13.4956 8.74666L13.5056 8.75979C13.5719 8.75929 13.6354 8.73273 13.6823 8.68584C13.7292 8.63894 13.7558 8.57548 13.7563 8.50916C13.7788 7.51604 13.47 6.68291 12.8644 6.01541C12.2556 5.34791 11.4063 4.97354 10.3219 4.89916H10.2863ZM10.6969 6.24666C10.355 6.23666 10.3419 6.74791 10.6806 6.75791C11.5044 6.80041 11.9044 7.21666 11.9569 8.07291C11.958 8.13791 11.9846 8.19987 12.0308 8.24555C12.0771 8.29122 12.1394 8.31697 12.2044 8.31729H12.2144C12.2478 8.31585 12.2806 8.30778 12.3109 8.29353C12.3411 8.27928 12.3683 8.25915 12.3907 8.23431C12.4131 8.20946 12.4303 8.18041 12.4413 8.14883C12.4524 8.11726 12.457 8.0838 12.455 8.05041C12.3963 6.93416 11.7875 6.30541 10.7069 6.24729H10.6969V6.24666Z" fill="white"/>
</g>
<defs>
<clipPath id="clip0_22_224">
<rect width="20" height="20" fill="white"/>
</clipPath>
</defs>
</svg>
