<svg width="73" height="60" viewBox="0 0 73 60" fill="none" xmlns="http://www.w3.org/2000/svg">
<path d="M6.83719 51.2L5.2295 52.3897L5.2362 52.3987L5.243 52.4077L6.83719 51.2ZM6.83719 8.88L5.23719 7.68L5.23525 7.68259L6.83719 8.88ZM39.7972 8.88L38.1895 10.0697L38.1953 10.0774L39.7972 8.88ZM39.7972 51.2L41.3991 52.3974L41.4049 52.3897L39.7972 51.2ZM14.8372 43.68L13.1299 44.7217L13.1339 44.7282L13.1379 44.7347L14.8372 43.68ZM31.7972 43.6L30.1028 42.5374L30.0963 42.5478L30.0899 42.5583L31.7972 43.6ZM31.7972 16.32L30.0899 17.3617L30.0963 17.3722L30.1028 17.3826L31.7972 16.32ZM23.3172 57.12C16.9167 57.12 12.0298 54.7422 8.43137 49.9923L5.243 52.4077C9.64458 58.2178 15.7444 61.12 23.3172 61.12V57.12ZM8.44487 50.0103C4.82477 45.1183 2.91719 38.5105 2.91719 30H-1.08281C-1.08281 39.0895 0.956269 46.615 5.2295 52.3897L8.44487 50.0103ZM2.91719 30C2.91719 21.4882 4.82528 14.9122 8.43913 10.0774L5.23525 7.68259C0.955764 13.4078 -1.08281 20.9118 -1.08281 30H2.91719ZM8.43719 10.08C12.0388 5.2779 16.9247 2.88 23.3172 2.88V-1.12C15.7364 -1.12 9.63561 1.81543 5.23719 7.68L8.43719 10.08ZM23.3172 2.88C29.7684 2.88 34.6461 5.28133 38.1895 10.0697L41.4049 7.69031C37.0549 1.81199 30.946 -1.12 23.3172 -1.12V2.88ZM38.1953 10.0774C41.8091 14.9122 43.7172 21.4882 43.7172 30H47.7172C47.7172 20.9118 45.6786 13.4078 41.3991 7.68259L38.1953 10.0774ZM43.7172 30C43.7172 38.5105 41.8096 45.1183 38.1895 50.0103L41.4049 52.3897C45.6781 46.615 47.7172 39.0895 47.7172 30H43.7172ZM38.1953 50.0026C34.6551 54.7388 29.7764 57.12 23.3172 57.12V61.12C30.9379 61.12 37.046 58.2212 41.3991 52.3974L38.1953 50.0026ZM13.1379 44.7347C15.4339 48.4338 18.9135 50.32 23.3172 50.32V46.32C20.2542 46.32 18.0805 45.1128 16.5365 42.6253L13.1379 44.7347ZM23.3172 50.32C27.7368 50.32 31.2156 48.3929 33.5045 44.6417L30.0899 42.5583C28.5387 45.1005 26.3642 46.32 23.3172 46.32V50.32ZM33.4916 44.6626C35.7504 41.0607 36.7572 36.0927 36.7572 30H32.7572C32.7572 35.7473 31.7907 39.846 30.1028 42.5374L33.4916 44.6626ZM36.7572 30C36.7572 23.8581 35.7518 18.8615 33.4916 15.2574L30.1028 17.3826C31.7893 20.0718 32.7572 24.1952 32.7572 30H36.7572ZM33.5045 15.2783C31.2156 11.5271 27.7368 9.6 23.3172 9.6V13.6C26.3642 13.6 28.5387 14.8195 30.0899 17.3617L33.5045 15.2783ZM23.3172 9.6C18.8976 9.6 15.4187 11.5271 13.1299 15.2783L16.5445 17.3617C18.0956 14.8195 20.2701 13.6 23.3172 13.6V9.6ZM13.1299 15.2783C10.934 18.8771 9.95719 23.8648 9.95719 30H13.9572C13.9572 24.1886 14.9004 20.0562 16.5445 17.3617L13.1299 15.2783ZM9.95719 30C9.95719 36.1352 10.934 41.1229 13.1299 44.7217L16.5445 42.6383C14.9004 39.9438 13.9572 35.8114 13.9572 30H9.95719ZM62.5453 2V-3.8147e-06H62.2024L61.8791 0.114204L62.5453 2ZM72.1453 2H74.1453V-3.8147e-06H72.1453V2ZM72.1453 58V60H74.1453V58H72.1453ZM61.1053 58H59.1053V60H61.1053V58ZM61.1053 13.68H63.1053V11.0423L60.5655 11.7542L61.1053 13.68ZM50.5453 16.64L48.6235 17.1937L49.1732 19.1017L51.0851 18.5658L50.5453 16.64ZM47.8253 7.2L47.1591 5.31421L45.3815 5.94217L45.9035 7.75374L47.8253 7.2ZM62.5453 4H72.1453V-3.8147e-06H62.5453V4ZM70.1453 2V58H74.1453V2H70.1453ZM72.1453 56H61.1053V60H72.1453V56ZM63.1053 58V13.68H59.1053V58H63.1053ZM60.5655 11.7542L50.0055 14.7142L51.0851 18.5658L61.6451 15.6058L60.5655 11.7542ZM52.4671 16.0863L49.7471 6.64625L45.9035 7.75374L48.6235 17.1937L52.4671 16.0863ZM48.4915 9.08579L63.2115 3.88579L61.8791 0.114204L47.1591 5.31421L48.4915 9.08579Z" fill="#D9D9D9"/>
</svg>
