<svg width="88" height="60" viewBox="0 0 88 60" fill="none" xmlns="http://www.w3.org/2000/svg">
<path d="M6.86063 51.2L5.25294 52.3897L5.25964 52.3987L5.26644 52.4077L6.86063 51.2ZM6.86063 8.88L5.26062 7.68L5.25869 7.68259L6.86063 8.88ZM39.8206 8.88L38.2129 10.0697L38.2187 10.0774L39.8206 8.88ZM39.8206 51.2L41.4226 52.3974L41.4283 52.3897L39.8206 51.2ZM14.8606 43.68L13.1533 44.7217L13.1573 44.7282L13.1613 44.7347L14.8606 43.68ZM31.8206 43.6L30.1262 42.5374L30.1197 42.5478L30.1133 42.5583L31.8206 43.6ZM31.8206 16.32L30.1133 17.3617L30.1197 17.3722L30.1262 17.3826L31.8206 16.32ZM23.3406 57.12C16.9401 57.12 12.0532 54.7422 8.45481 49.9923L5.26644 52.4077C9.66801 58.2178 15.7678 61.12 23.3406 61.12V57.12ZM8.46831 50.0103C4.84821 45.1183 2.94063 38.5105 2.94063 30H-1.05937C-1.05937 39.0895 0.979706 46.615 5.25294 52.3897L8.46831 50.0103ZM2.94063 30C2.94063 21.4882 4.84872 14.9122 8.46256 10.0774L5.25869 7.68259C0.979201 13.4078 -1.05937 20.9118 -1.05937 30H2.94063ZM8.46063 10.08C12.0622 5.2779 16.9481 2.88 23.3406 2.88V-1.12C15.7598 -1.12 9.65905 1.81543 5.26063 7.68L8.46063 10.08ZM23.3406 2.88C29.7918 2.88 34.6696 5.28133 38.2129 10.0697L41.4283 7.69031C37.0784 1.81199 30.9694 -1.12 23.3406 -1.12V2.88ZM38.2187 10.0774C41.8325 14.9122 43.7406 21.4882 43.7406 30H47.7406C47.7406 20.9118 45.7021 13.4078 41.4226 7.68259L38.2187 10.0774ZM43.7406 30C43.7406 38.5105 41.833 45.1183 38.2129 50.0103L41.4283 52.3897C45.7015 46.615 47.7406 39.0895 47.7406 30H43.7406ZM38.2187 50.0026C34.6785 54.7388 29.7999 57.12 23.3406 57.12V61.12C30.9614 61.12 37.0694 58.2212 41.4226 52.3974L38.2187 50.0026ZM13.1613 44.7347C15.4573 48.4338 18.9369 50.32 23.3406 50.32V46.32C20.2776 46.32 18.1039 45.1128 16.5599 42.6253L13.1613 44.7347ZM23.3406 50.32C27.7602 50.32 31.2391 48.3929 33.5279 44.6417L30.1133 42.5583C28.5622 45.1005 26.3877 46.32 23.3406 46.32V50.32ZM33.515 44.6626C35.7738 41.0607 36.7806 36.0927 36.7806 30H32.7806C32.7806 35.7473 31.8141 39.846 30.1262 42.5374L33.515 44.6626ZM36.7806 30C36.7806 23.8581 35.7752 18.8615 33.515 15.2574L30.1262 17.3826C31.8127 20.0718 32.7806 24.1952 32.7806 30H36.7806ZM33.5279 15.2783C31.2391 11.5271 27.7602 9.6 23.3406 9.6V13.6C26.3877 13.6 28.5622 14.8195 30.1133 17.3617L33.5279 15.2783ZM23.3406 9.6C18.921 9.6 15.4422 11.5271 13.1533 15.2783L16.5679 17.3617C18.1191 14.8195 20.2936 13.6 23.3406 13.6V9.6ZM13.1533 15.2783C10.9575 18.8771 9.98063 23.8648 9.98063 30H13.9806C13.9806 24.1886 14.9238 20.0562 16.5679 17.3617L13.1533 15.2783ZM9.98063 30C9.98063 36.1352 10.9575 41.1229 13.1533 44.7217L16.5679 42.6383C14.9238 39.9438 13.9806 35.8114 13.9806 30H9.98063ZM74.5056 24.72L72.9214 23.4992L71.1405 25.8103L73.9384 26.6379L74.5056 24.72ZM83.7056 30.64L82.1668 31.9175L82.1799 31.9333L82.1933 31.9488L83.7056 30.64ZM81.4656 54.24L80.1832 52.7052L80.1728 52.714L81.4656 54.24ZM55.5456 56.16L54.5245 57.8797L54.5403 57.8891L54.5562 57.8981L55.5456 56.16ZM48.1056 47.28L47.107 45.5471L45.6083 46.4108L46.2469 48.0184L48.1056 47.28ZM57.5456 41.84L59.4499 41.2287L58.693 38.8705L56.547 40.1071L57.5456 41.84ZM73.8656 46.32L75.1715 47.8348L75.1755 47.8314L73.8656 46.32ZM73.8656 35.2L72.5305 36.6891L72.5431 36.7004L72.5558 36.7114L73.8656 35.2ZM64.9056 33.12L63.2383 34.2246L63.8315 35.12H64.9056V33.12ZM60.6656 26.72L59.0784 25.5031L58.2104 26.6353L58.9983 27.8246L60.6656 26.72ZM71.7056 12.32L73.2928 13.5369L75.7591 10.32H71.7056V12.32ZM49.7856 12.32H47.7856V14.32H49.7856V12.32ZM49.7856 2V-3.8147e-06H47.7856V2H49.7856ZM84.9856 2H86.9856V-3.8147e-06H84.9856V2ZM84.9856 11.12L86.5698 12.3408L86.9856 11.8012V11.12H84.9856ZM73.9384 26.6379C77.3747 27.6543 80.0925 29.419 82.1668 31.9175L85.2444 29.3625C82.6254 26.2077 79.2099 24.0257 75.0729 22.8021L73.9384 26.6379ZM82.1933 31.9488C84.2538 34.3298 85.3056 37.2144 85.3056 40.72H89.3056C89.3056 36.3322 87.9575 32.4969 85.218 29.3312L82.1933 31.9488ZM85.3056 40.72C85.3056 45.9773 83.557 49.8861 80.1832 52.7053L82.7481 55.7747C87.1609 52.0873 89.3056 46.9827 89.3056 40.72H85.3056ZM80.1728 52.714C76.7353 55.6264 72.4892 57.12 67.3056 57.12V61.12C73.3221 61.12 78.516 59.3603 82.7585 55.766L80.1728 52.714ZM67.3056 57.12C63.2449 57.12 59.6717 56.2074 56.535 54.4219L54.5562 57.8981C58.3529 60.0593 62.6197 61.12 67.3056 61.12V57.12ZM56.5667 54.4403C53.5552 52.6522 51.3575 50.0486 49.9643 46.5416L46.2469 48.0184C47.9471 52.298 50.7093 55.6144 54.5245 57.8797L56.5667 54.4403ZM49.1042 49.0129L58.5442 43.5729L56.547 40.1071L47.107 45.5471L49.1042 49.0129ZM55.6413 42.4513C56.4498 44.9701 57.8553 46.9958 59.9194 48.3662C61.9618 49.7222 64.4727 50.32 67.3056 50.32V46.32C65.0185 46.32 63.3428 45.8378 62.1319 45.0338C60.9426 44.2442 60.0281 43.0299 59.4499 41.2287L55.6413 42.4513ZM67.3056 50.32C70.4279 50.32 73.1433 49.5832 75.1715 47.8348L72.5597 44.8052C71.4946 45.7234 69.8366 46.32 67.3056 46.32V50.32ZM75.1755 47.8314C77.2645 46.021 78.2656 43.5762 78.2656 40.72H74.2656C74.2656 42.5572 73.6668 43.8457 72.5558 44.8086L75.1755 47.8314ZM78.2656 40.72C78.2656 37.9011 77.2534 35.4895 75.1755 33.6886L72.5558 36.7114C73.6779 37.6839 74.2656 38.9522 74.2656 40.72H78.2656ZM75.2007 33.7109C73.1725 31.8925 70.4457 31.12 67.3056 31.12V35.12C69.8189 35.12 71.4654 35.7342 72.5305 36.6891L75.2007 33.7109ZM67.3056 31.12H64.9056V35.12H67.3056V31.12ZM66.5729 32.0154L62.3329 25.6154L58.9983 27.8246L63.2383 34.2246L66.5729 32.0154ZM62.2528 27.9369L73.2928 13.5369L70.1184 11.1031L59.0784 25.5031L62.2528 27.9369ZM71.7056 10.32H49.7856V14.32H71.7056V10.32ZM51.7856 12.32V2H47.7856V12.32H51.7856ZM49.7856 4H84.9856V-3.8147e-06H49.7856V4ZM82.9856 2V11.12H86.9856V2H82.9856ZM83.4014 9.89923L72.9214 23.4992L76.0898 25.9408L86.5698 12.3408L83.4014 9.89923Z" fill="#D9D9D9"/>
</svg>
