<svg width="94" height="60" viewBox="0 0 94 60" fill="none" xmlns="http://www.w3.org/2000/svg">
<path d="M6.82156 51.2L5.21388 52.3897L5.22058 52.3987L5.22738 52.4077L6.82156 51.2ZM6.82156 8.88L5.22156 7.68L5.21962 7.68259L6.82156 8.88ZM39.7816 8.88L38.1739 10.0697L38.1796 10.0774L39.7816 8.88ZM39.7816 51.2L41.3835 52.3974L41.3892 52.3897L39.7816 51.2ZM14.8216 43.68L13.1143 44.7217L13.1183 44.7282L13.1223 44.7347L14.8216 43.68ZM31.7816 43.6L30.0872 42.5374L30.0807 42.5478L30.0743 42.5583L31.7816 43.6ZM31.7816 16.32L30.0743 17.3617L30.0807 17.3722L30.0872 17.3826L31.7816 16.32ZM23.3016 57.12C16.9011 57.12 12.0142 54.7422 8.41575 49.9923L5.22738 52.4077C9.62895 58.2178 15.7287 61.12 23.3016 61.12V57.12ZM8.42925 50.0103C4.80915 45.1183 2.90156 38.5105 2.90156 30H-1.09844C-1.09844 39.0895 0.940644 46.615 5.21388 52.3897L8.42925 50.0103ZM2.90156 30C2.90156 21.4882 4.80965 14.9122 8.4235 10.0774L5.21962 7.68259C0.940139 13.4078 -1.09844 20.9118 -1.09844 30H2.90156ZM8.42156 10.08C12.0231 5.2779 16.9091 2.88 23.3016 2.88V-1.12C15.7207 -1.12 9.61999 1.81543 5.22156 7.68L8.42156 10.08ZM23.3016 2.88C29.7528 2.88 34.6305 5.28133 38.1739 10.0697L41.3892 7.69031C37.0393 1.81199 30.9304 -1.12 23.3016 -1.12V2.88ZM38.1796 10.0774C41.7935 14.9122 43.7016 21.4882 43.7016 30H47.7016C47.7016 20.9118 45.663 13.4078 41.3835 7.68259L38.1796 10.0774ZM43.7016 30C43.7016 38.5105 41.794 45.1183 38.1739 50.0103L41.3892 52.3897C45.6625 46.615 47.7016 39.0895 47.7016 30H43.7016ZM38.1796 50.0026C34.6394 54.7388 29.7608 57.12 23.3016 57.12V61.12C30.9223 61.12 37.0303 58.2212 41.3835 52.3974L38.1796 50.0026ZM13.1223 44.7347C15.4183 48.4338 18.8979 50.32 23.3016 50.32V46.32C20.2386 46.32 18.0649 45.1128 16.5208 42.6253L13.1223 44.7347ZM23.3016 50.32C27.7212 50.32 31.2 48.3929 33.4888 44.6417L30.0743 42.5583C28.5231 45.1005 26.3486 46.32 23.3016 46.32V50.32ZM33.4759 44.6626C35.7348 41.0607 36.7416 36.0927 36.7416 30H32.7416C32.7416 35.7473 31.775 39.846 30.0872 42.5374L33.4759 44.6626ZM36.7416 30C36.7416 23.8581 35.7361 18.8615 33.4759 15.2574L30.0872 17.3826C31.7737 20.0718 32.7416 24.1952 32.7416 30H36.7416ZM33.4888 15.2783C31.2 11.5271 27.7212 9.6 23.3016 9.6V13.6C26.3486 13.6 28.5231 14.8195 30.0743 17.3617L33.4888 15.2783ZM23.3016 9.6C18.882 9.6 15.4031 11.5271 13.1143 15.2783L16.5288 17.3617C18.08 14.8195 20.2545 13.6 23.3016 13.6V9.6ZM13.1143 15.2783C10.9184 18.8771 9.94156 23.8648 9.94156 30H13.9416C13.9416 24.1886 14.8847 20.0562 16.5288 17.3617L13.1143 15.2783ZM9.94156 30C9.94156 36.1352 10.9184 41.1229 13.1143 44.7217L16.5288 42.6383C14.8847 39.9438 13.9416 35.8114 13.9416 30H9.94156ZM93.7722 38.24H95.7722V36.24H93.7722V38.24ZM93.7722 48.48V50.48H95.7722V48.48H93.7722ZM87.7722 48.48V46.48H85.7722V48.48H87.7722ZM87.7722 58V60H89.7722V58H87.7722ZM76.6522 58H74.6522V60H76.6522V58ZM76.6522 48.48H78.6522V46.48H76.6522V48.48ZM50.1722 48.48H48.1722V50.48H50.1722V48.48ZM50.1722 38.24L48.3937 37.3252L48.1722 37.7558V38.24H50.1722ZM68.8122 2V-3.8147e-06H67.5918L67.0337 1.08521L68.8122 2ZM80.6522 2L82.4323 2.91167L83.9235 -3.8147e-06H80.6522V2ZM62.0922 38.24L60.3121 37.3283L58.8209 40.24H62.0922V38.24ZM76.6522 38.24V40.24H78.6522V38.24H76.6522ZM76.6522 24.96V22.96H74.6522V24.96H76.6522ZM87.7722 24.96H89.7722V22.96H87.7722V24.96ZM87.7722 38.24H85.7722V40.24H87.7722V38.24ZM91.7722 38.24V48.48H95.7722V38.24H91.7722ZM93.7722 46.48H87.7722V50.48H93.7722V46.48ZM85.7722 48.48V58H89.7722V48.48H85.7722ZM87.7722 56H76.6522V60H87.7722V56ZM78.6522 58V48.48H74.6522V58H78.6522ZM76.6522 46.48H50.1722V50.48H76.6522V46.48ZM52.1722 48.48V38.24H48.1722V48.48H52.1722ZM51.9507 39.1548L70.5907 2.91478L67.0337 1.08521L48.3937 37.3252L51.9507 39.1548ZM68.8122 4H80.6522V-3.8147e-06H68.8122V4ZM78.8721 1.08832L60.3121 37.3283L63.8723 39.1517L82.4323 2.91167L78.8721 1.08832ZM62.0922 40.24H76.6522V36.24H62.0922V40.24ZM78.6522 38.24V24.96H74.6522V38.24H78.6522ZM76.6522 26.96H87.7722V22.96H76.6522V26.96ZM85.7722 24.96V38.24H89.7722V24.96H85.7722ZM87.7722 40.24H93.7722V36.24H87.7722V40.24Z" fill="#D9D9D9"/>
</svg>
