<svg width="91" height="60" viewBox="0 0 91 60" fill="none" xmlns="http://www.w3.org/2000/svg">
<path d="M6.91531 51.2L5.30763 52.3897L5.31433 52.3987L5.32113 52.4077L6.91531 51.2ZM6.91531 8.88L5.31531 7.68L5.31337 7.68259L6.91531 8.88ZM39.8753 8.88L38.2676 10.0697L38.2734 10.0774L39.8753 8.88ZM39.8753 51.2L41.4773 52.3974L41.483 52.3897L39.8753 51.2ZM14.9153 43.68L13.208 44.7217L13.212 44.7282L13.216 44.7347L14.9153 43.68ZM31.8753 43.6L30.1809 42.5374L30.1744 42.5478L30.168 42.5583L31.8753 43.6ZM31.8753 16.32L30.168 17.3617L30.1744 17.3722L30.1809 17.3826L31.8753 16.32ZM23.3953 57.12C16.9948 57.12 12.1079 54.7422 8.5095 49.9923L5.32113 52.4077C9.7227 58.2178 15.8225 61.12 23.3953 61.12V57.12ZM8.523 50.0103C4.9029 45.1183 2.99531 38.5105 2.99531 30H-1.00469C-1.00469 39.0895 1.03439 46.615 5.30763 52.3897L8.523 50.0103ZM2.99531 30C2.99531 21.4882 4.9034 14.9122 8.51725 10.0774L5.31337 7.68259C1.03389 13.4078 -1.00469 20.9118 -1.00469 30H2.99531ZM8.51531 10.08C12.1169 5.2779 17.0028 2.88 23.3953 2.88V-1.12C15.8145 -1.12 9.71374 1.81543 5.31531 7.68L8.51531 10.08ZM23.3953 2.88C29.8465 2.88 34.7243 5.28133 38.2676 10.0697L41.483 7.69031C37.133 1.81199 31.0241 -1.12 23.3953 -1.12V2.88ZM38.2734 10.0774C41.8872 14.9122 43.7953 21.4882 43.7953 30H47.7953C47.7953 20.9118 45.7567 13.4078 41.4773 7.68259L38.2734 10.0774ZM43.7953 30C43.7953 38.5105 41.8877 45.1183 38.2676 50.0103L41.483 52.3897C45.7562 46.615 47.7953 39.0895 47.7953 30H43.7953ZM38.2734 50.0026C34.7332 54.7388 29.8546 57.12 23.3953 57.12V61.12C31.0161 61.12 37.1241 58.2212 41.4773 52.3974L38.2734 50.0026ZM13.216 44.7347C15.512 48.4338 18.9916 50.32 23.3953 50.32V46.32C20.3323 46.32 18.1586 45.1128 16.6146 42.6253L13.216 44.7347ZM23.3953 50.32C27.8149 50.32 31.2938 48.3929 33.5826 44.6417L30.168 42.5583C28.6169 45.1005 26.4424 46.32 23.3953 46.32V50.32ZM33.5697 44.6626C35.8285 41.0607 36.8353 36.0927 36.8353 30H32.8353C32.8353 35.7473 31.8688 39.846 30.1809 42.5374L33.5697 44.6626ZM36.8353 30C36.8353 23.8581 35.8299 18.8615 33.5697 15.2574L30.1809 17.3826C31.8674 20.0718 32.8353 24.1952 32.8353 30H36.8353ZM33.5826 15.2783C31.2938 11.5271 27.8149 9.6 23.3953 9.6V13.6C26.4424 13.6 28.6169 14.8195 30.168 17.3617L33.5826 15.2783ZM23.3953 9.6C18.9757 9.6 15.4969 11.5271 13.208 15.2783L16.6226 17.3617C18.1738 14.8195 20.3483 13.6 23.3953 13.6V9.6ZM13.208 15.2783C11.0121 18.8771 10.0353 23.8648 10.0353 30H14.0353C14.0353 24.1886 14.9785 20.0562 16.6226 17.3617L13.208 15.2783ZM10.0353 30C10.0353 36.1352 11.0121 41.1229 13.208 44.7217L16.6226 42.6383C14.9785 39.9438 14.0353 35.8114 14.0353 30H10.0353ZM71.3859 20.16L69.7343 19.0322L67.6679 22.0584L71.3309 22.1592L71.3859 20.16ZM85.5459 25.84L84.1317 27.2542L84.137 27.2594L84.1422 27.2646L85.5459 25.84ZM85.3059 53.68L86.6893 55.1244L86.6946 55.1194L86.6998 55.1143L85.3059 53.68ZM56.0259 53.68L54.6324 55.1146L54.6375 55.1195L54.6426 55.1244L56.0259 53.68ZM53.7059 28.32L55.3659 29.4357L55.3731 29.4247L53.7059 28.32ZM71.1459 2V-3.8147e-06H70.072L69.4787 0.895277L71.1459 2ZM83.7859 2L85.4376 3.1278L87.5733 -3.8147e-06H83.7859V2ZM64.0259 46.24L62.6566 47.6977L64.0259 46.24ZM77.3059 46.24L75.9584 44.7621L75.9474 44.7721L75.9366 44.7823L77.3059 46.24ZM77.3059 33.04L75.9366 34.4977L75.9474 34.5079L75.9584 34.5179L77.3059 33.04ZM64.0259 33.04L65.3713 34.5199L65.3834 34.5089L65.3953 34.4977L64.0259 33.04ZM71.3309 22.1592C76.707 22.3072 80.9158 24.0382 84.1317 27.2542L86.9602 24.4258C82.9228 20.3884 77.6916 18.3328 71.441 18.1608L71.3309 22.1592ZM84.1422 27.2646C87.3474 30.4227 88.9859 34.4766 88.9859 39.6H92.9859C92.9859 33.5234 90.9978 28.404 86.9496 24.4153L84.1422 27.2646ZM88.9859 39.6C88.9859 44.8147 87.2779 48.9748 83.9121 52.2457L86.6998 55.1143C90.9074 51.0252 92.9859 45.7986 92.9859 39.6H88.9859ZM83.9226 52.2356C80.5607 55.4555 76.2013 57.12 70.6659 57.12V61.12C77.0772 61.12 82.4779 59.1579 86.6893 55.1244L83.9226 52.2356ZM70.6659 57.12C65.1306 57.12 60.7712 55.4555 57.4093 52.2356L54.6426 55.1244C58.854 59.1579 64.2547 61.12 70.6659 61.12V57.12ZM57.4195 52.2454C54.1172 49.0374 52.4259 44.883 52.4259 39.6H48.4259C48.4259 45.837 50.468 51.0692 54.6324 55.1146L57.4195 52.2454ZM52.4259 39.6C52.4259 35.694 53.4205 32.3299 55.3658 29.4357L52.046 27.2043C49.618 30.8167 48.4259 34.9727 48.4259 39.6H52.4259ZM55.3731 29.4247L72.8131 3.10472L69.4787 0.895277L52.0387 27.2153L55.3731 29.4247ZM71.1459 4H83.7859V-3.8147e-06H71.1459V4ZM82.1343 0.872194L69.7343 19.0322L73.0376 21.2878L85.4376 3.1278L82.1343 0.872194ZM62.6566 47.6977C64.8275 49.737 67.5481 50.72 70.6659 50.72V46.72C68.4504 46.72 66.7444 46.0497 65.3953 44.7823L62.6566 47.6977ZM70.6659 50.72C73.7837 50.72 76.5044 49.737 78.6753 47.6977L75.9366 44.7823C74.5875 46.0497 72.8815 46.72 70.6659 46.72V50.72ZM78.6535 47.7179C80.9387 45.6343 82.0259 42.8548 82.0259 39.6H78.0259C78.0259 41.8919 77.2998 43.5391 75.9584 44.7621L78.6535 47.7179ZM82.0259 39.6C82.0259 36.3854 80.9301 33.6378 78.6535 31.5621L75.9584 34.5179C77.3085 35.7488 78.0259 37.3746 78.0259 39.6H82.0259ZM78.6753 31.5823C76.5044 29.543 73.7837 28.56 70.6659 28.56V32.56C72.8815 32.56 74.5874 33.2303 75.9366 34.4977L78.6753 31.5823ZM70.6659 28.56C67.5481 28.56 64.8275 29.543 62.6566 31.5823L65.3953 34.4977C66.7444 33.2303 68.4504 32.56 70.6659 32.56V28.56ZM62.6806 31.5601C60.4333 33.6031 59.3859 36.3657 59.3859 39.6H63.3859C63.3859 37.2876 64.0985 35.6769 65.3713 34.5199L62.6806 31.5601ZM59.3859 39.6C59.3859 42.8356 60.4331 45.6089 62.6566 47.6977L65.3953 44.7823C64.0988 43.5644 63.3859 41.9111 63.3859 39.6H59.3859Z" fill="#D9D9D9"/>
</svg>
