<svg width="15" height="15" viewBox="0 0 15 15" fill="none" xmlns="http://www.w3.org/2000/svg">
<path d="M14.3579 0.572991C14.2202 0.483631 14.0663 0.422272 13.9049 0.39242C13.7435 0.362569 13.5778 0.36481 13.4172 0.399015C13.2567 0.43322 13.1044 0.498718 12.9692 0.59177C12.834 0.684821 12.7184 0.803601 12.6291 0.941325L5.62498 11.7376L2.20915 8.57924C2.08863 8.46781 1.94735 8.38121 1.79336 8.32438C1.63938 8.26754 1.47571 8.2416 1.3117 8.24802C0.980459 8.26099 0.667942 8.40502 0.442895 8.64841C0.217848 8.8918 0.0987048 9.21462 0.111676 9.54586C0.124647 9.87709 0.26867 10.1896 0.512062 10.4147L4.99706 14.5613C4.99706 14.5613 5.12581 14.6722 5.18539 14.7109C5.3231 14.8003 5.47707 14.8617 5.63852 14.8916C5.79997 14.9215 5.96572 14.9193 6.12631 14.8851C6.2869 14.8509 6.43917 14.7854 6.57442 14.6923C6.70968 14.5992 6.82526 14.4804 6.91456 14.3426L14.7262 2.30174C14.8156 2.16406 14.8769 2.01011 14.9068 1.84871C14.9367 1.6873 14.9344 1.5216 14.9002 1.36106C14.866 1.20052 14.8005 1.04829 14.7074 0.913074C14.6144 0.777855 14.4956 0.662294 14.3579 0.572991Z" fill="#191A1E"/>
</svg>
