<svg width="30" height="30" viewBox="0 0 30 30" fill="none" xmlns="http://www.w3.org/2000/svg">
<g clip-path="url(#clip0_22_391)">
<path d="M14.2481 0.00470103C11.8406 0.0337635 6.6647 0.429389 3.7697 3.08533C1.61626 5.21908 0.864384 8.37376 0.776259 12.2747C0.703134 16.1616 0.615008 23.461 7.65095 25.4485V28.4756C7.65095 28.4756 7.60688 29.6869 8.40751 29.9353C9.39376 30.2475 9.95532 29.3156 10.8928 28.3144L12.6413 26.3372C17.4553 26.7375 21.1425 25.815 21.5672 25.6781C22.5441 25.366 28.0463 24.6628 28.9453 17.3625C29.8678 9.82314 28.4963 5.07283 26.0203 2.92408H26.0053C25.2581 2.23595 22.2553 0.047826 15.5466 0.023451C15.5466 0.023451 15.0488 -0.010299 14.2481 0.00376353V0.00470103ZM14.3306 2.12439C15.0141 2.1197 15.4294 2.14876 15.4294 2.14876C21.1078 2.16376 23.8181 3.87283 24.4575 4.44845C26.5425 6.23533 27.6169 10.5178 26.8303 16.8122C26.0831 22.9153 21.6206 23.3016 20.7947 23.565C20.4431 23.6775 17.1956 24.4781 13.1044 24.2147C13.1044 24.2147 10.0575 27.8916 9.10501 28.8385C8.95407 29.0044 8.77782 29.0531 8.66532 29.0288C8.50407 28.9894 8.45532 28.7897 8.4647 28.516L8.49376 23.4919C2.52657 21.8419 2.87813 15.616 2.94188 12.3638C3.01501 9.11158 3.62532 6.45095 5.4422 4.64908C7.88813 2.43751 12.2831 2.13939 14.3288 2.12439H14.3306ZM14.7806 5.37564C14.7315 5.37514 14.6828 5.38437 14.6373 5.4028C14.5917 5.42122 14.5503 5.44847 14.5154 5.48299C14.4804 5.5175 14.4526 5.55858 14.4337 5.60388C14.4147 5.64917 14.4048 5.69777 14.4047 5.74689C14.4047 5.95689 14.5753 6.12283 14.7806 6.12283C15.7102 6.10515 16.634 6.27167 17.4989 6.61279C18.3637 6.95391 19.1525 7.46287 19.8197 8.11033C21.1819 9.43314 21.8456 11.2106 21.8709 13.5347C21.8709 13.74 22.0369 13.9106 22.2469 13.9106V13.8956C22.3459 13.8959 22.4409 13.857 22.5113 13.7875C22.5818 13.7179 22.6218 13.6234 22.6228 13.5244C22.6683 12.4305 22.4909 11.3387 22.1014 10.3155C21.7119 9.29225 21.1183 8.35891 20.3569 7.5722C18.8728 6.12189 16.9922 5.3747 14.7806 5.3747V5.37564ZM9.83907 6.23533C9.57371 6.19655 9.30307 6.24982 9.0722 6.38626H9.05251C8.5165 6.70046 8.03365 7.09756 7.62188 7.56283C7.2797 7.95845 7.09407 8.35876 7.04532 8.74408C7.01626 8.97376 7.03595 9.20345 7.10438 9.42283L7.12876 9.43783C7.51407 10.5703 8.01751 11.6597 8.63251 12.6853C9.42472 14.1262 10.3997 15.4588 11.5331 16.65L11.5669 16.6988L11.6203 16.7381L11.6541 16.7775L11.6934 16.8113C12.889 17.9481 14.2248 18.9276 15.6684 19.726C17.3184 20.6241 18.3197 21.0488 18.9206 21.225V21.2344C19.0969 21.2878 19.2572 21.3122 19.4184 21.3122C19.9306 21.2747 20.4154 21.0668 20.7956 20.7216C21.2588 20.3097 21.6515 19.8249 21.9581 19.2863V19.2769C22.2459 18.735 22.1484 18.2222 21.7331 17.8753C20.9014 17.1483 20.002 16.5025 19.0472 15.9469C18.4078 15.6 17.7581 15.81 17.4947 16.1616L16.9331 16.8694C16.6453 17.221 16.1222 17.1722 16.1222 17.1722L16.1072 17.1816C12.2063 16.185 11.1656 12.2353 11.1656 12.2353C11.1656 12.2353 11.1169 11.6981 11.4778 11.4244L12.1809 10.8581C12.5175 10.5844 12.7519 9.93564 12.3909 9.29533C11.8391 8.33922 11.1948 7.43959 10.4672 6.60939C10.3081 6.41367 10.085 6.2805 9.8372 6.23345L9.83907 6.23533ZM15.4294 7.34908C14.9316 7.34908 14.9316 8.10095 15.4341 8.10095C16.0531 8.11099 16.6641 8.24292 17.2321 8.4892C17.8001 8.73548 18.314 9.09128 18.7444 9.53626C19.137 9.9694 19.4388 10.4769 19.6317 11.0288C19.8246 11.5807 19.9048 12.1656 19.8675 12.7491C19.8692 12.8478 19.9095 12.942 19.9798 13.0113C20.0501 13.0807 20.1447 13.1199 20.2434 13.1203L20.2584 13.14C20.3579 13.1393 20.4531 13.0994 20.5235 13.0291C20.5938 12.9587 20.6336 12.8636 20.6344 12.7641C20.6681 11.2744 20.205 10.0247 19.2966 9.02345C18.3834 8.0222 17.1094 7.46064 15.4828 7.34908H15.4294ZM16.0453 9.37033C15.5325 9.35533 15.5128 10.1222 16.0209 10.1372C17.2566 10.201 17.8566 10.8253 17.9353 12.1097C17.937 12.2072 17.9768 12.3001 18.0462 12.3687C18.1156 12.4372 18.2091 12.4758 18.3066 12.4763H18.3216C18.3717 12.4741 18.4209 12.462 18.4663 12.4406C18.5117 12.4193 18.5524 12.3891 18.586 12.3518C18.6196 12.3145 18.6454 12.2709 18.662 12.2236C18.6786 12.1762 18.6855 12.126 18.6825 12.076C18.5944 10.4016 17.6813 9.45845 16.0603 9.37126H16.0453V9.37033Z" fill="#232326"/>
</g>
<defs>
<clipPath id="clip0_22_391">
<rect width="30" height="30" fill="white"/>
</clipPath>
</defs>
</svg>
