<svg width="52" height="62" viewBox="0 0 52 62" fill="none" xmlns="http://www.w3.org/2000/svg">
<path d="M1.5 46V32L34 18.5V46H24.5V2L50.5 24V46M12.25 35.5H7.5V42.5H12.25M12.25 35.5H17V42.5H12.25M12.25 35.5V42.5" stroke="white" stroke-width="1.5"/>
<path d="M0.6975 52.99H1.5624V59.5H0.6975V52.99ZM7.89723 54.7291C8.41803 54.7291 8.83963 54.8996 9.16203 55.2406C9.48443 55.5754 9.64563 56.0311 9.64563 56.6077V59.5H8.83653V56.6356C8.83653 56.276 8.74353 55.997 8.55753 55.7986C8.37153 55.6002 8.12353 55.501 7.81353 55.501C7.46633 55.501 7.18733 55.6188 6.97653 55.8544C6.77193 56.0838 6.66963 56.4372 6.66963 56.9146V59.5H5.86053V56.6356C5.86053 56.276 5.77063 55.997 5.59083 55.7986C5.41723 55.6002 5.17853 55.501 4.87473 55.501C4.53373 55.501 4.24853 55.6188 4.01913 55.8544C3.79593 56.09 3.68433 56.4434 3.68433 56.9146V59.5H2.87523V54.85H3.68433V55.4731C4.00053 54.9771 4.46243 54.7291 5.07003 54.7291C5.69623 54.7291 6.15193 54.9926 6.43713 55.5196C6.75953 54.9926 7.24623 54.7291 7.89723 54.7291ZM13.3343 54.7291C13.9853 54.7291 14.5402 54.9678 14.999 55.4452C15.4578 55.9164 15.6872 56.493 15.6872 57.175C15.6872 57.857 15.4578 58.4367 14.999 58.9141C14.5402 59.3853 13.9853 59.6209 13.3343 59.6209C12.5655 59.6209 11.9796 59.314 11.5766 58.7002V61.36H10.7675V54.85H11.5766V55.6498C11.9796 55.036 12.5655 54.7291 13.3343 54.7291ZM13.232 58.8397C13.697 58.8397 14.0876 58.6816 14.4038 58.3654C14.72 58.043 14.8781 57.6462 14.8781 57.175C14.8781 56.7038 14.72 56.3101 14.4038 55.9939C14.0876 55.6715 13.697 55.5103 13.232 55.5103C12.7608 55.5103 12.3671 55.6715 12.0509 55.9939C11.7347 56.3101 11.5766 56.7038 11.5766 57.175C11.5766 57.6462 11.7347 58.043 12.0509 58.3654C12.3671 58.6816 12.7608 58.8397 13.232 58.8397ZM17.22 57.547C17.3006 57.9624 17.4897 58.2848 17.7873 58.5142C18.0911 58.7436 18.4631 58.8583 18.9033 58.8583C19.5171 58.8583 19.9635 58.632 20.2425 58.1794L20.9307 58.57C20.4781 59.2706 19.7961 59.6209 18.8847 59.6209C18.1469 59.6209 17.5455 59.3915 17.0805 58.9327C16.6217 58.4677 16.3923 57.8818 16.3923 57.175C16.3923 56.4744 16.6186 55.8916 17.0712 55.4266C17.5238 54.9616 18.1097 54.7291 18.8289 54.7291C19.5109 54.7291 20.0658 54.9709 20.4936 55.4545C20.9276 55.9319 21.1446 56.5085 21.1446 57.1843C21.1446 57.3021 21.1353 57.423 21.1167 57.547H17.22ZM18.8289 55.4917C18.3949 55.4917 18.0353 55.6157 17.7501 55.8637C17.4649 56.1055 17.2882 56.431 17.22 56.8402H20.3262C20.258 56.4 20.0844 56.0652 19.8054 55.8358C19.5264 55.6064 19.2009 55.4917 18.8289 55.4917ZM22.8837 55.6312C23.1503 55.0546 23.6339 54.7663 24.3345 54.7663V55.6126C23.9377 55.594 23.5967 55.6994 23.3115 55.9288C23.0263 56.1582 22.8837 56.5271 22.8837 57.0355V59.5H22.0746V54.85H22.8837V55.6312ZM25.5354 54.0037C25.3804 54.0037 25.2502 53.951 25.1448 53.8456C25.0394 53.7402 24.9867 53.6131 24.9867 53.4643C24.9867 53.3155 25.0394 53.1884 25.1448 53.083C25.2502 52.9714 25.3804 52.9156 25.5354 52.9156C25.6842 52.9156 25.8113 52.9714 25.9167 53.083C26.0221 53.1884 26.0748 53.3155 26.0748 53.4643C26.0748 53.6131 26.0221 53.7402 25.9167 53.8456C25.8113 53.951 25.6842 54.0037 25.5354 54.0037ZM25.1262 59.5V54.85H25.9353V59.5H25.1262ZM31.0199 54.85H31.829V59.5H31.0199V58.7002C30.6169 59.314 30.031 59.6209 29.2622 59.6209C28.6112 59.6209 28.0563 59.3853 27.5975 58.9141C27.1387 58.4367 26.9093 57.857 26.9093 57.175C26.9093 56.493 27.1387 55.9164 27.5975 55.4452C28.0563 54.9678 28.6112 54.7291 29.2622 54.7291C30.031 54.7291 30.6169 55.036 31.0199 55.6498V54.85ZM29.3645 58.8397C29.8357 58.8397 30.2294 58.6816 30.5456 58.3654C30.8618 58.043 31.0199 57.6462 31.0199 57.175C31.0199 56.7038 30.8618 56.3101 30.5456 55.9939C30.2294 55.6715 29.8357 55.5103 29.3645 55.5103C28.8995 55.5103 28.5089 55.6715 28.1927 55.9939C27.8765 56.3101 27.7184 56.7038 27.7184 57.175C27.7184 57.6462 27.8765 58.043 28.1927 58.3654C28.5089 58.6816 28.8995 58.8397 29.3645 58.8397ZM39.1835 56.1241C39.4811 56.2667 39.7167 56.4713 39.8903 56.7379C40.0701 57.0045 40.16 57.3114 40.16 57.6586C40.16 58.1794 39.9771 58.6165 39.6113 58.9699C39.2455 59.3233 38.7991 59.5 38.2721 59.5H35.4635V52.99H38.0675C38.5759 52.99 39.0068 53.1605 39.3602 53.5015C39.7136 53.8425 39.8903 54.2641 39.8903 54.7663C39.8903 55.3429 39.6547 55.7955 39.1835 56.1241ZM38.0675 53.7991H36.3284V55.7893H38.0675C38.3403 55.7893 38.5697 55.6932 38.7557 55.501C38.9417 55.3088 39.0347 55.0732 39.0347 54.7942C39.0347 54.5214 38.9386 54.2889 38.7464 54.0967C38.5604 53.8983 38.3341 53.7991 38.0675 53.7991ZM38.2721 58.6909C38.5635 58.6909 38.8084 58.5886 39.0068 58.384C39.2052 58.1794 39.3044 57.9283 39.3044 57.6307C39.3044 57.3393 39.2021 57.0913 38.9975 56.8867C38.7991 56.6821 38.5573 56.5798 38.2721 56.5798H36.3284V58.6909H38.2721ZM44.4099 54.85H45.219V59.5H44.4099V58.8304C44.0813 59.3574 43.5791 59.6209 42.9033 59.6209C42.3577 59.6209 41.9206 59.4504 41.592 59.1094C41.2634 58.7622 41.0991 58.2941 41.0991 57.7051V54.85H41.9082V57.6586C41.9082 58.0368 42.0105 58.3313 42.2151 58.5421C42.4197 58.7467 42.7018 58.849 43.0614 58.849C43.4644 58.849 43.7899 58.725 44.0379 58.477C44.2859 58.2228 44.4099 57.8353 44.4099 57.3145V54.85ZM50.301 52.99H51.1101V59.5H50.301V58.7002C49.898 59.314 49.3121 59.6209 48.5433 59.6209C47.8923 59.6209 47.3374 59.3853 46.8786 58.9141C46.4198 58.4367 46.1904 57.857 46.1904 57.175C46.1904 56.493 46.4198 55.9164 46.8786 55.4452C47.3374 54.9678 47.8923 54.7291 48.5433 54.7291C49.3121 54.7291 49.898 55.036 50.301 55.6498V52.99ZM48.6456 58.8397C49.1168 58.8397 49.5105 58.6816 49.8267 58.3654C50.1429 58.043 50.301 57.6462 50.301 57.175C50.301 56.7038 50.1429 56.3101 49.8267 55.9939C49.5105 55.6715 49.1168 55.5103 48.6456 55.5103C48.1806 55.5103 47.79 55.6715 47.4738 55.9939C47.1576 56.3101 46.9995 56.7038 46.9995 57.175C46.9995 57.6462 47.1576 58.043 47.4738 58.3654C47.79 58.6816 48.1806 58.8397 48.6456 58.8397Z" fill="white"/>
</svg>
