<svg width="22" height="22" viewBox="0 0 22 22" fill="none" xmlns="http://www.w3.org/2000/svg">
<g clip-path="url(#clip0_2_30)">
<path fill-rule="evenodd" clip-rule="evenodd" d="M6.84291 0.977187C7.91816 0.927687 8.261 0.916687 11 0.916687C13.739 0.916687 14.0818 0.928604 15.1562 0.977187C16.2305 1.02577 16.9638 1.19719 17.6055 1.4456C18.2774 1.69952 18.887 2.09644 19.3912 2.60977C19.9045 3.11302 20.3005 3.72169 20.5535 4.39452C20.8028 5.03619 20.9733 5.76952 21.0228 6.84202C21.0723 7.9191 21.0833 8.26194 21.0833 11C21.0833 13.739 21.0714 14.0819 21.0228 15.1571C20.9742 16.2296 20.8028 16.9629 20.5535 17.6046C20.3005 18.2775 19.9038 18.8872 19.3912 19.3912C18.887 19.9045 18.2774 20.3005 17.6055 20.5535C16.9638 20.8029 16.2305 20.9734 15.158 21.0229C14.0818 21.0724 13.739 21.0834 11 21.0834C8.261 21.0834 7.91816 21.0714 6.84291 21.0229C5.77041 20.9743 5.03708 20.8029 4.39541 20.5535C3.72251 20.3005 3.11283 19.9038 2.60883 19.3912C2.09585 18.8876 1.69887 18.2782 1.44558 17.6055C1.19716 16.9639 1.02666 16.2305 0.977164 15.158C0.927664 14.0809 0.916664 13.7381 0.916664 11C0.916664 8.26102 0.928581 7.91819 0.977164 6.84385C1.02575 5.76952 1.19716 5.03619 1.44558 4.39452C1.69924 3.72176 2.09652 3.11239 2.60975 2.60885C3.11303 2.09598 3.7221 1.69901 4.3945 1.4456C5.03616 1.19719 5.7695 1.02669 6.842 0.977187H6.84291ZM15.0746 2.79219C14.0112 2.7436 13.6922 2.73352 11 2.73352C8.30775 2.73352 7.98875 2.7436 6.92541 2.79219C5.94183 2.8371 5.40833 3.00119 5.05266 3.1396C4.58241 3.32294 4.246 3.54019 3.89308 3.8931C3.55854 4.21857 3.30108 4.61478 3.13958 5.05269C3.00116 5.40835 2.83708 5.94185 2.79216 6.92544C2.74358 7.98877 2.7335 8.30777 2.7335 11C2.7335 13.6923 2.74358 14.0113 2.79216 15.0746C2.83708 16.0582 3.00116 16.5917 3.13958 16.9474C3.30091 17.3846 3.5585 17.7815 3.89308 18.1069C4.2185 18.4415 4.61541 18.6991 5.05266 18.8604C5.40833 18.9989 5.94183 19.1629 6.92541 19.2079C7.98875 19.2564 8.30683 19.2665 11 19.2665C13.6932 19.2665 14.0112 19.2564 15.0746 19.2079C16.0582 19.1629 16.5917 18.9989 16.9473 18.8604C17.4176 18.6771 17.754 18.4599 18.1069 18.1069C18.4415 17.7815 18.6991 17.3846 18.8604 16.9474C18.9988 16.5917 19.1629 16.0582 19.2078 15.0746C19.2564 14.0113 19.2665 13.6923 19.2665 11C19.2665 8.30777 19.2564 7.98877 19.2078 6.92544C19.1629 5.94185 18.9988 5.40835 18.8604 5.05269C18.6771 4.58244 18.4598 4.24602 18.1069 3.8931C17.7814 3.55859 17.3852 3.30113 16.9473 3.1396C16.5917 3.00119 16.0582 2.8371 15.0746 2.79219ZM9.71208 14.1084C10.4314 14.4079 11.2323 14.4483 11.978 14.2228C12.7238 13.9973 13.3681 13.5199 13.801 12.8721C14.2338 12.2243 14.4284 11.4463 14.3514 10.671C14.2744 9.89575 13.9306 9.17125 13.3787 8.62127C13.027 8.26971 12.6016 8.00052 12.1333 7.83307C11.665 7.66563 11.1654 7.6041 10.6705 7.65292C10.1755 7.70174 9.69755 7.85968 9.27098 8.11539C8.84442 8.3711 8.47985 8.7182 8.20353 9.13172C7.9272 9.54523 7.746 10.0149 7.67297 10.5068C7.59994 10.9988 7.63689 11.5008 7.78116 11.9767C7.92543 12.4527 8.17344 12.8907 8.50733 13.2593C8.84121 13.628 9.25267 13.9179 9.71208 14.1084ZM7.33516 7.33519C7.81644 6.85391 8.38779 6.47215 9.0166 6.21169C9.64542 5.95122 10.3194 5.81716 11 5.81716C11.6806 5.81716 12.3546 5.95122 12.9834 6.21169C13.6122 6.47215 14.1836 6.85391 14.6648 7.33519C15.1461 7.81646 15.5279 8.38781 15.7883 9.01663C16.0488 9.64544 16.1829 10.3194 16.1829 11C16.1829 11.6806 16.0488 12.3546 15.7883 12.9834C15.5279 13.6122 15.1461 14.1836 14.6648 14.6649C13.6929 15.6368 12.3746 16.1829 11 16.1829C9.62542 16.1829 8.30714 15.6368 7.33516 14.6649C6.36319 13.6929 5.81714 12.3746 5.81714 11C5.81714 9.62544 6.36319 8.30716 7.33516 7.33519ZM17.3323 6.58902C17.4516 6.47652 17.5471 6.34123 17.6131 6.19116C17.6791 6.0411 17.7144 5.87931 17.7168 5.71537C17.7192 5.55144 17.6887 5.38869 17.627 5.23676C17.5654 5.08484 17.4739 4.94682 17.358 4.83089C17.242 4.71496 17.104 4.62346 16.9521 4.56183C16.8002 4.50019 16.6374 4.46967 16.4735 4.47205C16.3095 4.47444 16.1478 4.5097 15.9977 4.57574C15.8476 4.64178 15.7123 4.73726 15.5998 4.85652C15.381 5.08846 15.2612 5.39655 15.2659 5.71537C15.2705 6.0342 15.3993 6.33866 15.6247 6.56413C15.8502 6.78959 16.1547 6.91831 16.4735 6.92296C16.7923 6.92761 17.1004 6.80782 17.3323 6.58902Z" fill="white"/>
</g>
<defs>
<clipPath id="clip0_2_30">
<rect width="22" height="22" fill="white"/>
</clipPath>
</defs>
</svg>
