<svg width="29" height="29" viewBox="0 0 29 29" fill="none" xmlns="http://www.w3.org/2000/svg">
<path d="M9.39117 2.9471L10.6913 2.53143C11.9105 2.14235 13.2131 2.77189 13.7351 4.00197L14.7743 6.45247C15.2262 7.51943 14.9749 8.77489 14.1532 9.55547L11.8634 11.7281C12.0048 13.0282 12.4422 14.3078 13.1745 15.5669C13.8698 16.7851 14.8025 17.8513 15.9174 18.7026L18.6675 17.7842C19.7091 17.4374 20.845 17.8374 21.483 18.7763L22.9728 20.9634C23.716 22.0557 23.5818 23.5613 22.6599 24.4868L21.6727 25.4789C20.6891 26.4661 19.2838 26.825 17.9848 26.419C14.9157 25.462 12.0966 22.6212 9.52288 17.8966C6.94551 13.1648 6.03563 9.14827 6.79446 5.85193C7.11346 4.46477 8.10067 3.35914 9.39117 2.9471Z" fill="#232326"/>
</svg>
